<svg xmlns="http://www.w3.org/2000/svg" xmlns:xlink="http://www.w3.org/1999/xlink" width="500" zoomAndPan="magnify" viewBox="0 0 375 374.999991" height="500" preserveAspectRatio="xMidYMid meet" version="1.0"><defs><g/><clipPath id="a64ecf0b1a"><path d="M 140 104.046875 L 247.9375 104.046875 L 247.9375 212 L 140 212 Z M 140 104.046875 " clip-rule="nonzero"/></clipPath><clipPath id="0cbe1ba2b3"><path d="M 158 137 L 242 137 L 242 224.796875 L 158 224.796875 Z M 158 137 " clip-rule="nonzero"/></clipPath><clipPath id="39bc77ad1e"><path d="M 127.1875 110 L 214 110 L 214 194 L 127.1875 194 Z M 127.1875 110 " clip-rule="nonzero"/></clipPath></defs><g clip-path="url(#a64ecf0b1a)"><path fill="#1480ff" d="M 235.46875 104.113281 C 234.964844 104.113281 234.464844 104.144531 233.964844 104.207031 C 233.464844 104.269531 232.972656 104.359375 232.480469 104.480469 C 231.992188 104.605469 231.515625 104.753906 231.042969 104.9375 C 230.574219 105.117188 230.117188 105.324219 229.671875 105.5625 C 229.226562 105.796875 228.800781 106.0625 228.386719 106.351562 C 227.976562 106.640625 227.582031 106.953125 227.207031 107.289062 C 226.835938 107.625 226.480469 107.984375 226.152344 108.363281 C 225.820312 108.746094 225.515625 109.144531 225.234375 109.5625 C 224.953125 109.980469 224.699219 110.414062 224.472656 110.863281 C 224.242188 111.3125 224.042969 111.773438 223.871094 112.246094 C 223.699219 112.71875 223.558594 113.199219 223.445312 113.691406 C 223.332031 114.183594 223.25 114.675781 223.195312 115.179688 C 223.144531 115.679688 223.125 116.179688 223.132812 116.683594 C 223.140625 117.1875 223.183594 117.6875 223.253906 118.1875 C 223.324219 118.6875 223.425781 119.179688 223.554688 119.664062 C 223.6875 120.152344 223.847656 120.628906 224.035156 121.09375 L 140.679688 204.449219 C 140.679688 204.449219 141.21875 205.082031 143.941406 207.847656 C 146.667969 210.617188 147.339844 211.113281 147.339844 211.113281 L 230.636719 127.808594 C 231.054688 127.988281 231.484375 128.140625 231.917969 128.273438 C 232.355469 128.40625 232.800781 128.511719 233.25 128.59375 C 233.695312 128.675781 234.148438 128.734375 234.605469 128.765625 C 235.058594 128.796875 235.515625 128.804688 235.96875 128.785156 C 236.425781 128.769531 236.878906 128.726562 237.332031 128.65625 C 237.78125 128.585938 238.226562 128.496094 238.667969 128.375 C 239.109375 128.257812 239.542969 128.117188 239.964844 127.949219 C 240.390625 127.785156 240.804688 127.59375 241.210938 127.382812 C 241.613281 127.171875 242.003906 126.9375 242.382812 126.683594 C 242.761719 126.425781 243.125 126.152344 243.46875 125.855469 C 243.816406 125.558594 244.148438 125.246094 244.460938 124.914062 C 244.773438 124.582031 245.066406 124.234375 245.339844 123.867188 C 245.613281 123.503906 245.867188 123.125 246.101562 122.734375 C 246.332031 122.339844 246.542969 121.9375 246.730469 121.519531 C 246.914062 121.105469 247.078125 120.679688 247.21875 120.246094 C 247.359375 119.808594 247.476562 119.371094 247.566406 118.921875 C 247.65625 118.476562 247.722656 118.023438 247.765625 117.570312 C 247.804688 117.117188 247.824219 116.660156 247.8125 116.207031 C 247.804688 115.75 247.769531 115.292969 247.710938 114.84375 C 247.648438 114.390625 247.566406 113.941406 247.457031 113.5 C 247.347656 113.058594 247.214844 112.621094 247.054688 112.191406 C 246.898438 111.765625 246.71875 111.347656 246.515625 110.9375 C 246.308594 110.53125 246.085938 110.136719 245.835938 109.753906 C 245.589844 109.371094 245.320312 109 245.03125 108.648438 C 244.742188 108.292969 244.4375 107.957031 244.109375 107.640625 C 243.785156 107.320312 243.441406 107.019531 243.082031 106.738281 C 242.722656 106.457031 242.351562 106.195312 241.960938 105.957031 C 241.574219 105.71875 241.171875 105.5 240.761719 105.304688 C 240.347656 105.109375 239.925781 104.9375 239.496094 104.789062 C 239.066406 104.640625 238.625 104.515625 238.183594 104.414062 C 237.738281 104.316406 237.289062 104.238281 236.835938 104.1875 C 236.378906 104.140625 235.925781 104.113281 235.46875 104.113281 Z M 235.46875 120.425781 C 235.207031 120.425781 234.949219 120.398438 234.695312 120.347656 C 234.4375 120.296875 234.191406 120.222656 233.949219 120.121094 C 233.707031 120.023438 233.480469 119.898438 233.261719 119.753906 C 233.046875 119.609375 232.84375 119.445312 232.660156 119.261719 C 232.476562 119.078125 232.3125 118.875 232.167969 118.660156 C 232.023438 118.441406 231.898438 118.214844 231.800781 117.972656 C 231.699219 117.730469 231.625 117.484375 231.574219 117.226562 C 231.523438 116.972656 231.496094 116.714844 231.496094 116.453125 C 231.496094 116.191406 231.523438 115.933594 231.574219 115.679688 C 231.625 115.421875 231.699219 115.171875 231.800781 114.933594 C 231.898438 114.691406 232.023438 114.464844 232.167969 114.246094 C 232.3125 114.03125 232.476562 113.828125 232.660156 113.644531 C 232.84375 113.460938 233.046875 113.296875 233.261719 113.152344 C 233.480469 113.003906 233.707031 112.882812 233.949219 112.785156 C 234.191406 112.683594 234.4375 112.609375 234.695312 112.558594 C 234.949219 112.507812 235.207031 112.480469 235.46875 112.480469 C 235.730469 112.480469 235.988281 112.507812 236.246094 112.558594 C 236.5 112.609375 236.75 112.683594 236.988281 112.785156 C 237.230469 112.882812 237.460938 113.003906 237.675781 113.152344 C 237.894531 113.296875 238.09375 113.460938 238.277344 113.644531 C 238.460938 113.828125 238.628906 114.03125 238.773438 114.246094 C 238.917969 114.464844 239.039062 114.691406 239.140625 114.933594 C 239.238281 115.171875 239.3125 115.421875 239.363281 115.679688 C 239.414062 115.933594 239.441406 116.191406 239.441406 116.453125 C 239.441406 116.714844 239.414062 116.972656 239.363281 117.226562 C 239.3125 117.484375 239.238281 117.730469 239.136719 117.972656 C 239.039062 118.214844 238.917969 118.441406 238.769531 118.660156 C 238.625 118.875 238.460938 119.074219 238.277344 119.261719 C 238.09375 119.445312 237.890625 119.609375 237.675781 119.753906 C 237.457031 119.898438 237.230469 120.023438 236.988281 120.121094 C 236.75 120.222656 236.5 120.296875 236.246094 120.347656 C 235.988281 120.398438 235.730469 120.425781 235.46875 120.425781 Z M 235.46875 120.425781 " fill-opacity="1" fill-rule="nonzero"/></g><g clip-path="url(#0cbe1ba2b3)"><path fill="#0065dd" d="M 232.867188 137.949219 L 225.960938 144.855469 C 235.777344 162.894531 233.066406 186.003906 217.820312 201.25 C 216.457031 202.613281 215.019531 203.886719 213.5 205.074219 C 211.984375 206.257812 210.398438 207.351562 208.75 208.34375 C 207.097656 209.339844 205.394531 210.230469 203.636719 211.015625 C 201.878906 211.804688 200.078125 212.484375 198.238281 213.050781 C 196.398438 213.621094 194.53125 214.074219 192.632812 214.417969 C 190.738281 214.757812 188.828125 214.984375 186.90625 215.09375 C 184.980469 215.203125 183.058594 215.199219 181.136719 215.074219 C 179.214844 214.949219 177.304688 214.710938 175.414062 214.355469 L 184.972656 204.78125 C 185.40625 204.964844 185.851562 205.121094 186.304688 205.257812 C 186.753906 205.390625 187.214844 205.496094 187.679688 205.578125 C 188.144531 205.65625 188.613281 205.710938 189.082031 205.738281 C 189.554688 205.765625 190.027344 205.765625 190.496094 205.738281 C 190.96875 205.710938 191.4375 205.660156 191.902344 205.578125 C 192.367188 205.496094 192.824219 205.390625 193.277344 205.257812 C 193.730469 205.125 194.175781 204.964844 194.609375 204.78125 C 195.042969 204.597656 195.464844 204.386719 195.875 204.15625 C 196.285156 203.921875 196.683594 203.667969 197.0625 203.386719 C 197.445312 203.109375 197.808594 202.8125 198.15625 202.492188 C 198.503906 202.171875 198.832031 201.832031 199.140625 201.476562 C 199.445312 201.117188 199.734375 200.746094 200 200.355469 C 200.265625 199.964844 200.507812 199.558594 200.726562 199.140625 C 200.945312 198.722656 201.136719 198.292969 201.308594 197.851562 C 201.476562 197.414062 201.621094 196.964844 201.738281 196.507812 C 201.855469 196.050781 201.949219 195.589844 202.015625 195.121094 C 202.078125 194.652344 202.117188 194.183594 202.128906 193.710938 C 202.140625 193.242188 202.125 192.769531 202.082031 192.300781 C 202.039062 191.828125 201.96875 191.363281 201.871094 190.902344 C 201.777344 190.4375 201.652344 189.984375 201.503906 189.535156 C 201.355469 189.089844 201.183594 188.652344 200.984375 188.222656 C 200.785156 187.792969 200.5625 187.378906 200.316406 186.976562 C 200.070312 186.574219 199.804688 186.1875 199.511719 185.816406 C 199.222656 185.441406 198.910156 185.089844 198.578125 184.753906 C 198.246094 184.417969 197.898438 184.101562 197.53125 183.804688 C 197.164062 183.507812 196.78125 183.234375 196.378906 182.984375 C 195.980469 182.730469 195.570312 182.503906 195.144531 182.296875 C 194.71875 182.09375 194.285156 181.914062 193.835938 181.757812 C 193.390625 181.605469 192.9375 181.476562 192.476562 181.371094 C 192.015625 181.269531 191.550781 181.195312 191.082031 181.144531 C 190.613281 181.09375 190.144531 181.074219 189.671875 181.078125 C 189.199219 181.082031 188.730469 181.113281 188.261719 181.171875 C 187.792969 181.230469 187.328125 181.316406 186.871094 181.425781 C 186.414062 181.539062 185.960938 181.675781 185.519531 181.839844 C 185.074219 182.003906 184.644531 182.191406 184.222656 182.402344 C 183.800781 182.617188 183.394531 182.851562 183 183.113281 C 182.605469 183.371094 182.226562 183.652344 181.867188 183.957031 C 181.503906 184.261719 181.160156 184.582031 180.835938 184.925781 C 180.511719 185.269531 180.207031 185.628906 179.925781 186.003906 C 179.640625 186.382812 179.378906 186.773438 179.140625 187.179688 C 178.902344 187.589844 178.6875 188.007812 178.496094 188.441406 C 178.308594 188.871094 178.140625 189.3125 178.003906 189.765625 C 177.863281 190.214844 177.75 190.671875 177.664062 191.136719 C 177.574219 191.601562 177.515625 192.066406 177.480469 192.539062 C 177.445312 193.007812 177.441406 193.480469 177.460938 193.949219 C 177.480469 194.421875 177.527344 194.890625 177.601562 195.359375 C 177.675781 195.824219 177.777344 196.285156 177.90625 196.738281 C 178.03125 197.191406 178.183594 197.636719 178.363281 198.074219 L 165.203125 211.234375 L 158.125 218.316406 C 159.496094 219.019531 160.890625 219.664062 162.3125 220.253906 C 163.734375 220.84375 165.179688 221.375 166.644531 221.847656 C 168.109375 222.320312 169.59375 222.730469 171.09375 223.082031 C 172.589844 223.433594 174.101562 223.726562 175.625 223.957031 C 177.144531 224.1875 178.675781 224.355469 180.210938 224.460938 C 181.746094 224.566406 183.285156 224.609375 184.824219 224.589844 C 186.363281 224.574219 187.902344 224.492188 189.433594 224.347656 C 190.96875 224.207031 192.492188 224 194.007812 223.734375 C 195.523438 223.46875 197.027344 223.140625 198.519531 222.753906 C 200.007812 222.363281 201.480469 221.917969 202.933594 221.410156 C 204.386719 220.902344 205.816406 220.335938 207.226562 219.710938 C 208.632812 219.089844 210.015625 218.410156 211.367188 217.675781 C 212.71875 216.941406 214.039062 216.152344 215.328125 215.308594 C 216.617188 214.464844 217.871094 213.574219 219.089844 212.628906 C 220.304688 211.6875 221.480469 210.695312 222.617188 209.65625 C 223.753906 208.617188 224.847656 207.535156 225.894531 206.40625 C 226.945312 205.277344 227.945312 204.109375 228.898438 202.902344 C 229.851562 201.691406 230.757812 200.449219 231.609375 199.167969 C 232.460938 197.882812 233.261719 196.570312 234.007812 195.222656 C 234.753906 193.878906 235.445312 192.503906 236.082031 191.101562 C 236.71875 189.699219 237.292969 188.273438 237.816406 186.824219 C 238.335938 185.371094 238.792969 183.90625 239.195312 182.417969 C 239.597656 180.933594 239.9375 179.429688 240.214844 177.917969 C 240.496094 176.402344 240.710938 174.878906 240.867188 173.347656 C 241.023438 171.816406 241.117188 170.28125 241.148438 168.742188 C 241.183594 167.203125 241.152344 165.664062 241.058594 164.128906 C 240.964844 162.589844 240.808594 161.058594 240.59375 159.535156 C 240.375 158.011719 240.097656 156.496094 239.757812 154.996094 C 239.417969 153.492188 239.019531 152.007812 238.558594 150.539062 C 238.097656 149.070312 237.582031 147.621094 237.003906 146.195312 C 236.425781 144.765625 235.792969 143.363281 235.101562 141.988281 C 234.410156 140.613281 233.664062 139.265625 232.867188 137.949219 Z M 189.796875 189.460938 C 190.058594 189.460938 190.316406 189.484375 190.570312 189.535156 C 190.828125 189.585938 191.074219 189.664062 191.316406 189.761719 C 191.558594 189.863281 191.785156 189.984375 192.003906 190.128906 C 192.21875 190.273438 192.421875 190.4375 192.605469 190.625 C 192.789062 190.808594 192.953125 191.007812 193.097656 191.226562 C 193.242188 191.441406 193.367188 191.671875 193.464844 191.910156 C 193.566406 192.152344 193.640625 192.402344 193.691406 192.65625 C 193.742188 192.914062 193.769531 193.171875 193.769531 193.433594 C 193.769531 193.691406 193.742188 193.949219 193.691406 194.207031 C 193.640625 194.460938 193.566406 194.710938 193.464844 194.953125 C 193.367188 195.191406 193.242188 195.421875 193.097656 195.636719 C 192.953125 195.855469 192.789062 196.054688 192.605469 196.242188 C 192.421875 196.425781 192.21875 196.589844 192.003906 196.734375 C 191.785156 196.878906 191.558594 197 191.316406 197.101562 C 191.074219 197.203125 190.828125 197.277344 190.570312 197.328125 C 190.316406 197.378906 190.058594 197.402344 189.796875 197.402344 C 189.535156 197.402344 189.277344 197.378906 189.019531 197.328125 C 188.765625 197.277344 188.515625 197.203125 188.277344 197.101562 C 188.035156 197 187.804688 196.878906 187.589844 196.734375 C 187.371094 196.589844 187.171875 196.425781 186.988281 196.242188 C 186.804688 196.054688 186.636719 195.855469 186.492188 195.636719 C 186.347656 195.421875 186.226562 195.191406 186.125 194.953125 C 186.027344 194.710938 185.953125 194.460938 185.902344 194.207031 C 185.851562 193.949219 185.824219 193.691406 185.824219 193.433594 C 185.824219 193.171875 185.847656 192.914062 185.898438 192.65625 C 185.949219 192.398438 186.027344 192.152344 186.125 191.910156 C 186.226562 191.667969 186.347656 191.441406 186.492188 191.222656 C 186.636719 191.003906 186.800781 190.804688 186.988281 190.621094 C 187.171875 190.433594 187.371094 190.269531 187.589844 190.125 C 187.804688 189.980469 188.035156 189.855469 188.273438 189.757812 C 188.515625 189.65625 188.765625 189.582031 189.019531 189.53125 C 189.277344 189.480469 189.535156 189.453125 189.796875 189.453125 Z M 189.796875 189.460938 " fill-opacity="1" fill-rule="nonzero"/></g><g clip-path="url(#39bc77ad1e)"><path fill="#1480ff" d="M 184.1875 120.03125 C 188.164062 120.023438 192.078125 120.507812 195.933594 121.488281 C 199.789062 122.46875 203.460938 123.910156 206.949219 125.816406 L 213.839844 118.925781 C 212.523438 118.125 211.179688 117.382812 209.804688 116.691406 C 208.425781 116 207.027344 115.363281 205.597656 114.789062 C 204.171875 114.210938 202.722656 113.691406 201.253906 113.230469 C 199.785156 112.773438 198.296875 112.371094 196.796875 112.03125 C 195.296875 111.691406 193.78125 111.414062 192.257812 111.195312 C 190.734375 110.980469 189.203125 110.824219 187.664062 110.730469 C 186.128906 110.636719 184.589844 110.609375 183.050781 110.640625 C 181.511719 110.671875 179.976562 110.765625 178.445312 110.917969 C 176.914062 111.074219 175.390625 111.292969 173.875 111.574219 C 172.363281 111.851562 170.859375 112.191406 169.375 112.59375 C 167.886719 112.992188 166.417969 113.453125 164.96875 113.972656 C 163.519531 114.492188 162.09375 115.070312 160.691406 115.703125 C 159.289062 116.339844 157.914062 117.03125 156.570312 117.777344 C 155.222656 118.523438 153.90625 119.324219 152.625 120.175781 C 151.34375 121.027344 150.097656 121.933594 148.890625 122.886719 C 147.679688 123.839844 146.511719 124.839844 145.386719 125.890625 C 144.257812 126.9375 143.175781 128.03125 142.136719 129.164062 C 141.097656 130.300781 140.105469 131.476562 139.160156 132.695312 C 138.21875 133.910156 137.324219 135.164062 136.480469 136.453125 C 135.640625 137.742188 134.851562 139.0625 134.113281 140.414062 C 133.378906 141.769531 132.699219 143.148438 132.074219 144.554688 C 131.453125 145.964844 130.886719 147.394531 130.378906 148.847656 C 129.871094 150.300781 129.421875 151.773438 129.035156 153.261719 C 128.644531 154.753906 128.316406 156.253906 128.050781 157.773438 C 127.785156 159.289062 127.578125 160.8125 127.4375 162.347656 C 127.292969 163.878906 127.210938 165.414062 127.191406 166.957031 C 127.175781 168.496094 127.21875 170.03125 127.324219 171.570312 C 127.429688 173.105469 127.597656 174.632812 127.828125 176.15625 C 128.054688 177.679688 128.347656 179.191406 128.699219 180.6875 C 129.050781 182.1875 129.460938 183.667969 129.933594 185.136719 C 130.40625 186.601562 130.9375 188.042969 131.527344 189.46875 C 132.113281 190.890625 132.761719 192.285156 133.460938 193.65625 L 140.542969 186.578125 L 173.339844 153.777344 C 173.777344 153.953125 174.222656 154.105469 174.675781 154.230469 C 175.128906 154.359375 175.589844 154.457031 176.054688 154.53125 C 176.519531 154.605469 176.988281 154.652344 177.457031 154.671875 C 177.929688 154.691406 178.398438 154.683594 178.871094 154.648438 C 179.339844 154.613281 179.804688 154.554688 180.269531 154.464844 C 180.730469 154.378906 181.1875 154.265625 181.636719 154.125 C 182.085938 153.984375 182.527344 153.820312 182.957031 153.628906 C 183.390625 153.4375 183.808594 153.222656 184.214844 152.984375 C 184.621094 152.746094 185.011719 152.484375 185.386719 152.199219 C 185.765625 151.917969 186.125 151.613281 186.464844 151.289062 C 186.804688 150.964844 187.128906 150.621094 187.429688 150.257812 C 187.730469 149.898438 188.011719 149.519531 188.269531 149.125 C 188.53125 148.734375 188.765625 148.324219 188.976562 147.90625 C 189.1875 147.484375 189.375 147.050781 189.539062 146.609375 C 189.703125 146.167969 189.839844 145.71875 189.949219 145.261719 C 190.058594 144.800781 190.144531 144.339844 190.203125 143.871094 C 190.261719 143.40625 190.292969 142.933594 190.296875 142.464844 C 190.300781 141.992188 190.277344 141.523438 190.226562 141.054688 C 190.175781 140.585938 190.101562 140.121094 189.996094 139.664062 C 189.894531 139.203125 189.765625 138.75 189.609375 138.304688 C 189.453125 137.859375 189.273438 137.425781 189.070312 137 C 188.867188 136.578125 188.636719 136.167969 188.386719 135.769531 C 188.132812 135.371094 187.859375 134.988281 187.5625 134.621094 C 187.265625 134.253906 186.953125 133.90625 186.617188 133.574219 C 186.28125 133.246094 185.925781 132.933594 185.554688 132.644531 C 185.183594 132.355469 184.796875 132.085938 184.394531 131.839844 C 183.992188 131.597656 183.578125 131.375 183.152344 131.175781 C 182.722656 130.976562 182.285156 130.804688 181.839844 130.65625 C 181.390625 130.511719 180.9375 130.386719 180.476562 130.292969 C 180.015625 130.195312 179.546875 130.128906 179.078125 130.085938 C 178.609375 130.042969 178.140625 130.027344 177.667969 130.039062 C 177.199219 130.050781 176.730469 130.089844 176.261719 130.15625 C 175.796875 130.21875 175.335938 130.3125 174.878906 130.429688 C 174.421875 130.546875 173.976562 130.691406 173.535156 130.863281 C 173.09375 131.03125 172.667969 131.226562 172.25 131.445312 C 171.832031 131.664062 171.429688 131.90625 171.039062 132.171875 C 170.648438 132.4375 170.277344 132.722656 169.921875 133.03125 C 169.5625 133.339844 169.226562 133.664062 168.90625 134.011719 C 168.585938 134.359375 168.289062 134.722656 168.011719 135.101562 C 167.734375 135.484375 167.480469 135.878906 167.246094 136.289062 C 167.015625 136.699219 166.808594 137.121094 166.625 137.554688 C 166.441406 137.988281 166.28125 138.433594 166.148438 138.882812 C 166.015625 139.335938 165.910156 139.792969 165.828125 140.257812 C 165.75 140.722656 165.695312 141.191406 165.667969 141.660156 C 165.644531 142.128906 165.644531 142.601562 165.671875 143.070312 C 165.699219 143.542969 165.75 144.007812 165.832031 144.472656 C 165.914062 144.9375 166.019531 145.394531 166.152344 145.847656 C 166.285156 146.300781 166.445312 146.742188 166.628906 147.175781 L 137.433594 176.375 C 137.269531 175.519531 137.132812 174.660156 137.019531 173.796875 C 136.90625 172.933594 136.816406 172.066406 136.75 171.199219 C 136.683594 170.332031 136.640625 169.460938 136.625 168.589844 C 136.605469 167.71875 136.609375 166.851562 136.640625 165.980469 C 136.667969 165.109375 136.722656 164.242188 136.800781 163.375 C 136.878906 162.507812 136.976562 161.644531 137.101562 160.78125 C 137.226562 159.917969 137.375 159.0625 137.546875 158.207031 C 137.71875 157.355469 137.914062 156.507812 138.132812 155.664062 C 138.351562 154.820312 138.59375 153.984375 138.855469 153.15625 C 139.121094 152.324219 139.40625 151.503906 139.714844 150.691406 C 140.027344 149.875 140.355469 149.070312 140.710938 148.277344 C 141.0625 147.480469 141.4375 146.695312 141.835938 145.921875 C 142.234375 145.144531 142.648438 144.382812 143.089844 143.628906 C 143.527344 142.878906 143.984375 142.136719 144.464844 141.410156 C 144.945312 140.683594 145.445312 139.972656 145.960938 139.273438 C 146.480469 138.574219 147.015625 137.886719 147.574219 137.21875 C 148.128906 136.546875 148.703125 135.894531 149.296875 135.253906 C 149.886719 134.617188 150.496094 133.996094 151.121094 133.390625 C 151.746094 132.785156 152.390625 132.199219 153.046875 131.628906 C 153.707031 131.058594 154.378906 130.507812 155.070312 129.972656 C 155.757812 129.441406 156.460938 128.929688 157.175781 128.433594 C 157.894531 127.941406 158.625 127.464844 159.367188 127.011719 C 160.109375 126.558594 160.863281 126.125 161.628906 125.710938 C 162.398438 125.296875 163.175781 124.90625 163.960938 124.539062 C 164.75 124.167969 165.546875 123.820312 166.355469 123.492188 C 167.164062 123.167969 167.976562 122.863281 168.800781 122.582031 C 169.625 122.300781 170.457031 122.042969 171.292969 121.804688 C 172.132812 121.570312 172.976562 121.359375 173.828125 121.167969 C 174.675781 120.980469 175.53125 120.8125 176.390625 120.671875 C 177.25 120.527344 178.109375 120.410156 178.976562 120.3125 C 179.839844 120.21875 180.707031 120.148438 181.578125 120.101562 C 182.445312 120.054688 183.316406 120.03125 184.1875 120.03125 Z M 177.988281 138.367188 C 178.25 138.367188 178.507812 138.390625 178.761719 138.441406 C 179.019531 138.492188 179.265625 138.570312 179.507812 138.667969 C 179.75 138.769531 179.976562 138.890625 180.195312 139.035156 C 180.410156 139.179688 180.613281 139.34375 180.796875 139.53125 C 180.980469 139.714844 181.144531 139.914062 181.289062 140.132812 C 181.433594 140.347656 181.558594 140.578125 181.65625 140.816406 C 181.757812 141.058594 181.832031 141.308594 181.882812 141.5625 C 181.933594 141.820312 181.960938 142.078125 181.960938 142.339844 C 181.960938 142.597656 181.933594 142.855469 181.882812 143.113281 C 181.832031 143.367188 181.757812 143.617188 181.65625 143.859375 C 181.558594 144.097656 181.433594 144.328125 181.289062 144.542969 C 181.144531 144.761719 180.980469 144.960938 180.796875 145.148438 C 180.613281 145.332031 180.410156 145.496094 180.195312 145.640625 C 179.976562 145.785156 179.75 145.90625 179.507812 146.007812 C 179.265625 146.109375 179.019531 146.183594 178.761719 146.234375 C 178.507812 146.285156 178.25 146.308594 177.988281 146.308594 C 177.726562 146.308594 177.46875 146.285156 177.214844 146.234375 C 176.957031 146.183594 176.710938 146.109375 176.46875 146.007812 C 176.226562 145.90625 176 145.785156 175.78125 145.640625 C 175.566406 145.496094 175.363281 145.332031 175.179688 145.148438 C 174.996094 144.960938 174.832031 144.761719 174.6875 144.542969 C 174.539062 144.328125 174.417969 144.097656 174.320312 143.859375 C 174.21875 143.617188 174.144531 143.367188 174.09375 143.113281 C 174.042969 142.855469 174.015625 142.597656 174.015625 142.339844 C 174.015625 141.8125 174.117188 141.304688 174.320312 140.820312 C 174.523438 140.332031 174.808594 139.902344 175.179688 139.53125 C 175.554688 139.160156 175.984375 138.871094 176.46875 138.671875 C 176.957031 138.46875 177.460938 138.367188 177.988281 138.367188 Z M 177.988281 138.367188 " fill-opacity="1" fill-rule="nonzero"/></g><g fill="#00bfa6" fill-opacity="1"><g transform="translate(118.171872, 257.806229)"><g><path d="M 15.046875 0.5 C 12.410156 0.5 10.070312 -0.0546875 8.03125 -1.171875 C 6 -2.296875 4.410156 -3.84375 3.265625 -5.8125 C 2.128906 -7.789062 1.5625 -10.070312 1.5625 -12.65625 C 1.5625 -15.226562 2.128906 -17.503906 3.265625 -19.484375 C 4.410156 -21.460938 6 -23.007812 8.03125 -24.125 C 10.070312 -25.25 12.410156 -25.8125 15.046875 -25.8125 C 17.691406 -25.8125 20.023438 -25.25 22.046875 -24.125 C 24.078125 -23.007812 25.671875 -21.460938 26.828125 -19.484375 C 27.984375 -17.503906 28.5625 -15.226562 28.5625 -12.65625 C 28.5625 -10.070312 27.984375 -7.789062 26.828125 -5.8125 C 25.671875 -3.84375 24.078125 -2.296875 22.046875 -1.171875 C 20.023438 -0.0546875 17.691406 0.5 15.046875 0.5 Z M 7.40625 -12.65625 C 7.40625 -11.132812 7.726562 -9.796875 8.375 -8.640625 C 9.03125 -7.484375 9.929688 -6.578125 11.078125 -5.921875 C 12.222656 -5.273438 13.546875 -4.953125 15.046875 -4.953125 C 16.554688 -4.953125 17.882812 -5.273438 19.03125 -5.921875 C 20.175781 -6.578125 21.066406 -7.484375 21.703125 -8.640625 C 22.347656 -9.796875 22.671875 -11.132812 22.671875 -12.65625 C 22.671875 -14.175781 22.347656 -15.515625 21.703125 -16.671875 C 21.066406 -17.828125 20.175781 -18.726562 19.03125 -19.375 C 17.882812 -20.03125 16.554688 -20.359375 15.046875 -20.359375 C 13.546875 -20.359375 12.222656 -20.03125 11.078125 -19.375 C 9.929688 -18.726562 9.03125 -17.828125 8.375 -16.671875 C 7.726562 -15.515625 7.40625 -14.175781 7.40625 -12.65625 Z M 7.40625 -12.65625 "/></g></g></g><g fill="#00bfa6" fill-opacity="1"><g transform="translate(148.277006, 257.806229)"><g><path d="M 14.25 0.5 C 13.0625 0.5 11.960938 0.328125 10.953125 -0.015625 C 9.941406 -0.367188 9.039062 -0.859375 8.25 -1.484375 L 8.25 7.234375 L 2.75 7.234375 L 2.75 -18.984375 L 6.828125 -18.984375 L 7.453125 -16.8125 C 8.296875 -17.65625 9.296875 -18.3125 10.453125 -18.78125 C 11.609375 -19.25 12.875 -19.484375 14.25 -19.484375 C 16.15625 -19.484375 17.828125 -19.054688 19.265625 -18.203125 C 20.710938 -17.347656 21.851562 -16.171875 22.6875 -14.671875 C 23.519531 -13.179688 23.9375 -11.460938 23.9375 -9.515625 C 23.9375 -7.554688 23.519531 -5.820312 22.6875 -4.3125 C 21.851562 -2.8125 20.710938 -1.632812 19.265625 -0.78125 C 17.828125 0.0703125 16.15625 0.5 14.25 0.5 Z M 8.03125 -9.515625 C 8.03125 -7.960938 8.515625 -6.691406 9.484375 -5.703125 C 10.460938 -4.722656 11.722656 -4.234375 13.265625 -4.234375 C 14.835938 -4.234375 16.101562 -4.722656 17.0625 -5.703125 C 18.03125 -6.691406 18.515625 -7.960938 18.515625 -9.515625 C 18.515625 -11.054688 18.03125 -12.316406 17.0625 -13.296875 C 16.101562 -14.285156 14.835938 -14.78125 13.265625 -14.78125 C 11.722656 -14.78125 10.460938 -14.285156 9.484375 -13.296875 C 8.515625 -12.316406 8.03125 -11.054688 8.03125 -9.515625 Z M 8.03125 -9.515625 "/></g></g></g><g fill="#00bfa6" fill-opacity="1"><g transform="translate(173.61158, 257.806229)"><g><path d="M 11.890625 0 C 9.484375 0 7.632812 -0.617188 6.34375 -1.859375 C 5.050781 -3.097656 4.40625 -4.875 4.40625 -7.1875 L 4.40625 -14.5 L 0.71875 -14.5 L 0.71875 -18.984375 L 2.421875 -18.984375 C 3.460938 -18.984375 4.164062 -19.148438 4.53125 -19.484375 C 4.90625 -19.828125 5.164062 -20.476562 5.3125 -21.4375 L 5.640625 -23.90625 L 9.90625 -23.90625 L 9.90625 -18.984375 L 15.109375 -18.984375 L 15.109375 -14.5 L 9.90625 -14.5 L 9.90625 -8.03125 C 9.90625 -5.851562 10.96875 -4.765625 13.09375 -4.765625 L 15.359375 -4.765625 L 15.359375 0 Z M 11.890625 0 "/></g></g></g><g fill="#00bfa6" fill-opacity="1"><g transform="translate(190.489245, 257.806229)"><g><path d="M 2.75 0 L 2.75 -18.984375 L 8.25 -18.984375 L 8.25 0 Z M 1.953125 -25.125 C 1.953125 -26.132812 2.28125 -26.957031 2.9375 -27.59375 C 3.601562 -28.238281 4.457031 -28.5625 5.5 -28.5625 C 6.5625 -28.5625 7.414062 -28.238281 8.0625 -27.59375 C 8.707031 -26.957031 9.03125 -26.132812 9.03125 -25.125 C 9.03125 -24.113281 8.707031 -23.285156 8.0625 -22.640625 C 7.414062 -22.003906 6.5625 -21.6875 5.5 -21.6875 C 4.457031 -21.6875 3.601562 -22.003906 2.9375 -22.640625 C 2.28125 -23.285156 1.953125 -24.113281 1.953125 -25.125 Z M 1.953125 -25.125 "/></g></g></g><g fill="#00bfa6" fill-opacity="1"><g transform="translate(201.475996, 257.806229)"><g><path d="M 3.03125 0 L 3.03125 -25.3125 L 14.359375 -25.3125 C 16.929688 -25.3125 18.976562 -24.695312 20.5 -23.46875 C 22.019531 -22.238281 22.78125 -20.585938 22.78125 -18.515625 C 22.78125 -17.328125 22.515625 -16.25 21.984375 -15.28125 C 21.453125 -14.320312 20.703125 -13.566406 19.734375 -13.015625 C 20.941406 -12.484375 21.875 -11.695312 22.53125 -10.65625 C 23.195312 -9.625 23.53125 -8.4375 23.53125 -7.09375 C 23.53125 -5.664062 23.171875 -4.421875 22.453125 -3.359375 C 21.734375 -2.296875 20.726562 -1.46875 19.4375 -0.875 C 18.144531 -0.289062 16.644531 0 14.9375 0 Z M 8.71875 -4.5625 L 14.0625 -4.5625 C 15.195312 -4.5625 16.078125 -4.820312 16.703125 -5.34375 C 17.328125 -5.875 17.640625 -6.625 17.640625 -7.59375 C 17.640625 -8.550781 17.328125 -9.296875 16.703125 -9.828125 C 16.078125 -10.359375 15.195312 -10.625 14.0625 -10.625 L 8.71875 -10.625 Z M 8.71875 -15 L 13.484375 -15 C 14.597656 -15 15.445312 -15.25 16.03125 -15.75 C 16.625 -16.257812 16.921875 -16.972656 16.921875 -17.890625 C 16.921875 -18.804688 16.625 -19.507812 16.03125 -20 C 15.445312 -20.5 14.597656 -20.75 13.484375 -20.75 L 8.71875 -20.75 Z M 8.71875 -15 "/></g></g></g><g fill="#00bfa6" fill-opacity="1"><g transform="translate(226.376885, 257.806229)"><g><path d="M 2.75 0 L 2.75 -18.984375 L 8.25 -18.984375 L 8.25 0 Z M 1.953125 -25.125 C 1.953125 -26.132812 2.28125 -26.957031 2.9375 -27.59375 C 3.601562 -28.238281 4.457031 -28.5625 5.5 -28.5625 C 6.5625 -28.5625 7.414062 -28.238281 8.0625 -27.59375 C 8.707031 -26.957031 9.03125 -26.132812 9.03125 -25.125 C 9.03125 -24.113281 8.707031 -23.285156 8.0625 -22.640625 C 7.414062 -22.003906 6.5625 -21.6875 5.5 -21.6875 C 4.457031 -21.6875 3.601562 -22.003906 2.9375 -22.640625 C 2.28125 -23.285156 1.953125 -24.113281 1.953125 -25.125 Z M 1.953125 -25.125 "/></g></g></g><g fill="#00bfa6" fill-opacity="1"><g transform="translate(237.363636, 257.806229)"><g><path d="M 1.375 0 L 1.375 -3.765625 L 10.734375 -14.5 L 1.703125 -14.5 L 1.703125 -18.984375 L 17.859375 -18.984375 L 17.859375 -15.265625 L 8.609375 -4.515625 L 18.078125 -4.515625 L 18.078125 0 Z M 1.375 0 "/></g></g></g><g fill="#00bfa6" fill-opacity="1"><g transform="translate(147.643775, 283.506603)"><g><path d="M 3.9375 0.171875 C 3.226562 0.171875 2.617188 0.0546875 2.109375 -0.171875 C 1.609375 -0.410156 1.21875 -0.742188 0.9375 -1.171875 C 0.664062 -1.597656 0.53125 -2.097656 0.53125 -2.671875 L 2.40625 -2.671875 C 2.40625 -2.273438 2.539062 -1.960938 2.8125 -1.734375 C 3.09375 -1.515625 3.460938 -1.40625 3.921875 -1.40625 C 4.328125 -1.40625 4.644531 -1.484375 4.875 -1.640625 C 5.101562 -1.796875 5.21875 -2.015625 5.21875 -2.296875 C 5.21875 -2.585938 5.078125 -2.820312 4.796875 -3 C 4.515625 -3.1875 4.078125 -3.347656 3.484375 -3.484375 C 2.503906 -3.691406 1.773438 -4.003906 1.296875 -4.421875 C 0.828125 -4.847656 0.59375 -5.398438 0.59375 -6.078125 C 0.59375 -6.847656 0.875 -7.453125 1.4375 -7.890625 C 2 -8.335938 2.765625 -8.5625 3.734375 -8.5625 C 4.398438 -8.5625 4.972656 -8.445312 5.453125 -8.21875 C 5.941406 -8 6.320312 -7.679688 6.59375 -7.265625 C 6.863281 -6.847656 7 -6.359375 7 -5.796875 L 5.15625 -5.796875 C 5.15625 -6.171875 5.03125 -6.46875 4.78125 -6.6875 C 4.539062 -6.90625 4.195312 -7.015625 3.75 -7.015625 C 3.351562 -7.015625 3.035156 -6.9375 2.796875 -6.78125 C 2.566406 -6.625 2.453125 -6.40625 2.453125 -6.125 C 2.453125 -5.863281 2.582031 -5.644531 2.84375 -5.46875 C 3.101562 -5.289062 3.550781 -5.128906 4.1875 -4.984375 C 5.238281 -4.734375 5.992188 -4.398438 6.453125 -3.984375 C 6.921875 -3.566406 7.15625 -3.023438 7.15625 -2.359375 C 7.15625 -1.566406 6.867188 -0.945312 6.296875 -0.5 C 5.722656 -0.0507812 4.9375 0.171875 3.9375 0.171875 Z M 3.9375 0.171875 "/></g></g></g><g fill="#00bfa6" fill-opacity="1"><g transform="translate(156.26422, 283.506603)"><g><path d="M 4.984375 0.171875 C 4.117188 0.171875 3.347656 -0.015625 2.671875 -0.390625 C 1.992188 -0.765625 1.460938 -1.28125 1.078125 -1.9375 C 0.703125 -2.59375 0.515625 -3.347656 0.515625 -4.203125 C 0.515625 -5.054688 0.703125 -5.8125 1.078125 -6.46875 C 1.460938 -7.125 1.992188 -7.632812 2.671875 -8 C 3.347656 -8.375 4.117188 -8.5625 4.984375 -8.5625 C 5.867188 -8.5625 6.644531 -8.375 7.3125 -8 C 7.988281 -7.632812 8.519531 -7.125 8.90625 -6.46875 C 9.289062 -5.8125 9.484375 -5.054688 9.484375 -4.203125 C 9.484375 -3.347656 9.289062 -2.59375 8.90625 -1.9375 C 8.519531 -1.28125 7.988281 -0.765625 7.3125 -0.390625 C 6.644531 -0.015625 5.867188 0.171875 4.984375 0.171875 Z M 2.453125 -4.203125 C 2.453125 -3.691406 2.5625 -3.242188 2.78125 -2.859375 C 3 -2.484375 3.296875 -2.1875 3.671875 -1.96875 C 4.054688 -1.75 4.492188 -1.640625 4.984375 -1.640625 C 5.492188 -1.640625 5.9375 -1.75 6.3125 -1.96875 C 6.695312 -2.1875 6.992188 -2.484375 7.203125 -2.859375 C 7.421875 -3.242188 7.53125 -3.691406 7.53125 -4.203125 C 7.53125 -4.703125 7.421875 -5.144531 7.203125 -5.53125 C 6.992188 -5.914062 6.695312 -6.210938 6.3125 -6.421875 C 5.9375 -6.640625 5.492188 -6.75 4.984375 -6.75 C 4.492188 -6.75 4.054688 -6.640625 3.671875 -6.421875 C 3.296875 -6.210938 3 -5.914062 2.78125 -5.53125 C 2.5625 -5.144531 2.453125 -4.703125 2.453125 -4.203125 Z M 2.453125 -4.203125 "/></g></g></g><g fill="#00bfa6" fill-opacity="1"><g transform="translate(167.186403, 283.506603)"><g><path d="M 1.015625 0 L 1.015625 -8.40625 L 2.921875 -8.40625 L 2.921875 -1.78125 L 6.59375 -1.78125 L 6.59375 0 Z M 1.015625 0 "/></g></g></g><g fill="#00bfa6" fill-opacity="1"><g transform="translate(175.027608, 283.506603)"><g><path d="M 4.4375 0.171875 C 3.707031 0.171875 3.082031 0.0234375 2.5625 -0.265625 C 2.039062 -0.554688 1.632812 -0.972656 1.34375 -1.515625 C 1.0625 -2.054688 0.921875 -2.703125 0.921875 -3.453125 L 0.921875 -8.40625 L 2.828125 -8.40625 L 2.828125 -3.59375 C 2.828125 -2.289062 3.363281 -1.640625 4.4375 -1.640625 C 5.507812 -1.640625 6.046875 -2.289062 6.046875 -3.59375 L 6.046875 -8.40625 L 7.953125 -8.40625 L 7.953125 -3.453125 C 7.953125 -2.703125 7.8125 -2.054688 7.53125 -1.515625 C 7.25 -0.972656 6.84375 -0.554688 6.3125 -0.265625 C 5.789062 0.0234375 5.164062 0.171875 4.4375 0.171875 Z M 4.4375 0.171875 "/></g></g></g><g fill="#00bfa6" fill-opacity="1"><g transform="translate(184.834885, 283.506603)"><g><path d="M 3.03125 0 L 3.03125 -6.609375 L 0.359375 -6.609375 L 0.359375 -8.40625 L 7.59375 -8.40625 L 7.59375 -6.609375 L 4.9375 -6.609375 L 4.9375 0 Z M 3.03125 0 "/></g></g></g><g fill="#00bfa6" fill-opacity="1"><g transform="translate(193.719071, 283.506603)"><g><path d="M 1.015625 0 L 1.015625 -8.40625 L 2.921875 -8.40625 L 2.921875 0 Z M 1.015625 0 "/></g></g></g><g fill="#00bfa6" fill-opacity="1"><g transform="translate(198.57521, 283.506603)"><g><path d="M 4.984375 0.171875 C 4.117188 0.171875 3.347656 -0.015625 2.671875 -0.390625 C 1.992188 -0.765625 1.460938 -1.28125 1.078125 -1.9375 C 0.703125 -2.59375 0.515625 -3.347656 0.515625 -4.203125 C 0.515625 -5.054688 0.703125 -5.8125 1.078125 -6.46875 C 1.460938 -7.125 1.992188 -7.632812 2.671875 -8 C 3.347656 -8.375 4.117188 -8.5625 4.984375 -8.5625 C 5.867188 -8.5625 6.644531 -8.375 7.3125 -8 C 7.988281 -7.632812 8.519531 -7.125 8.90625 -6.46875 C 9.289062 -5.8125 9.484375 -5.054688 9.484375 -4.203125 C 9.484375 -3.347656 9.289062 -2.59375 8.90625 -1.9375 C 8.519531 -1.28125 7.988281 -0.765625 7.3125 -0.390625 C 6.644531 -0.015625 5.867188 0.171875 4.984375 0.171875 Z M 2.453125 -4.203125 C 2.453125 -3.691406 2.5625 -3.242188 2.78125 -2.859375 C 3 -2.484375 3.296875 -2.1875 3.671875 -1.96875 C 4.054688 -1.75 4.492188 -1.640625 4.984375 -1.640625 C 5.492188 -1.640625 5.9375 -1.75 6.3125 -1.96875 C 6.695312 -2.1875 6.992188 -2.484375 7.203125 -2.859375 C 7.421875 -3.242188 7.53125 -3.691406 7.53125 -4.203125 C 7.53125 -4.703125 7.421875 -5.144531 7.203125 -5.53125 C 6.992188 -5.914062 6.695312 -6.210938 6.3125 -6.421875 C 5.9375 -6.640625 5.492188 -6.75 4.984375 -6.75 C 4.492188 -6.75 4.054688 -6.640625 3.671875 -6.421875 C 3.296875 -6.210938 3 -5.914062 2.78125 -5.53125 C 2.5625 -5.144531 2.453125 -4.703125 2.453125 -4.203125 Z M 2.453125 -4.203125 "/></g></g></g><g fill="#00bfa6" fill-opacity="1"><g transform="translate(209.497394, 283.506603)"><g><path d="M 1.015625 0 L 1.015625 -8.40625 L 2.625 -8.40625 L 6.34375 -3.28125 L 6.34375 -8.40625 L 8.234375 -8.40625 L 8.234375 0 L 6.609375 0 L 2.90625 -5.140625 L 2.90625 0 Z M 1.015625 0 "/></g></g></g><g fill="#00bfa6" fill-opacity="1"><g transform="translate(219.664313, 283.506603)"><g><path d="M 3.9375 0.171875 C 3.226562 0.171875 2.617188 0.0546875 2.109375 -0.171875 C 1.609375 -0.410156 1.21875 -0.742188 0.9375 -1.171875 C 0.664062 -1.597656 0.53125 -2.097656 0.53125 -2.671875 L 2.40625 -2.671875 C 2.40625 -2.273438 2.539062 -1.960938 2.8125 -1.734375 C 3.09375 -1.515625 3.460938 -1.40625 3.921875 -1.40625 C 4.328125 -1.40625 4.644531 -1.484375 4.875 -1.640625 C 5.101562 -1.796875 5.21875 -2.015625 5.21875 -2.296875 C 5.21875 -2.585938 5.078125 -2.820312 4.796875 -3 C 4.515625 -3.1875 4.078125 -3.347656 3.484375 -3.484375 C 2.503906 -3.691406 1.773438 -4.003906 1.296875 -4.421875 C 0.828125 -4.847656 0.59375 -5.398438 0.59375 -6.078125 C 0.59375 -6.847656 0.875 -7.453125 1.4375 -7.890625 C 2 -8.335938 2.765625 -8.5625 3.734375 -8.5625 C 4.398438 -8.5625 4.972656 -8.445312 5.453125 -8.21875 C 5.941406 -8 6.320312 -7.679688 6.59375 -7.265625 C 6.863281 -6.847656 7 -6.359375 7 -5.796875 L 5.15625 -5.796875 C 5.15625 -6.171875 5.03125 -6.46875 4.78125 -6.6875 C 4.539062 -6.90625 4.195312 -7.015625 3.75 -7.015625 C 3.351562 -7.015625 3.035156 -6.9375 2.796875 -6.78125 C 2.566406 -6.625 2.453125 -6.40625 2.453125 -6.125 C 2.453125 -5.863281 2.582031 -5.644531 2.84375 -5.46875 C 3.101562 -5.289062 3.550781 -5.128906 4.1875 -4.984375 C 5.238281 -4.734375 5.992188 -4.398438 6.453125 -3.984375 C 6.921875 -3.566406 7.15625 -3.023438 7.15625 -2.359375 C 7.15625 -1.566406 6.867188 -0.945312 6.296875 -0.5 C 5.722656 -0.0507812 4.9375 0.171875 3.9375 0.171875 Z M 3.9375 0.171875 "/></g></g></g></svg>